<svg width="57" height="36" fill="none" xmlns="http://www.w3.org/2000/svg"><path d="M2.209 21.5h3.5c2.31 0 2.345 3.5 0 3.5h-3.5c-2.31 0-2.338-3.5 0-3.5Zm0-10.5h3.5c2.31 0 2.345 3.5 0 3.5h-3.5c-2.31 0-2.338-3.5 0-3.5Zm0-10.5h3.5c2.31 0 2.345 3.5 0 3.5h-3.5C-.101 4-.13.5 2.209.5Zm26.81 10.948-5.81 5.845-2.317-2.317c-1.46-1.46-4.004.945-2.415 2.537l3.514 3.535c.647.61 1.774.61 2.415 0l7.035-7.059c1.63-1.638-.98-3.976-2.415-2.538l-.007-.003ZM16.209.5c-2.877 0-5.25 2.373-5.25 5.25v17.5c0 2.268 3.5 2.275 3.5 0V5.75c0-1.001.749-1.75 1.75-1.75h17.5c1 0 1.75.749 1.75 1.75v17.5c0 1.001-.75 1.75-1.75 1.75h-3.5c-2.296 0-2.29 3.5 0 3.5h3.5c2.877 0 5.25-2.373 5.25-5.25V7.5h7.875l6.125 9.188v6.562c0 2.38 3.5 2.275 3.5 0v-7c0-.35-.123-.7-.33-.98l-7-10.5A1.745 1.745 0 0 0 47.71 4h-9.08A5.21 5.21 0 0 0 33.71.5h-17.5Zm3.5 24.5c-2.888 0-5.25 2.387-5.25 5.25s2.362 5.25 5.25 5.25 5.25-2.387 5.25-5.25S22.596 25 19.709 25Zm0 3.5c.99 0 1.75.77 1.75 1.75s-.76 1.75-1.75 1.75-1.75-.77-1.75-1.75.76-1.75 1.75-1.75Zm28-3.5c-2.888 0-5.25 2.387-5.25 5.25s2.362 5.25 5.25 5.25 5.25-2.387 5.25-5.25S50.596 25 47.709 25Zm0 3.5c.99 0 1.75.77 1.75 1.75s-.76 1.75-1.75 1.75-1.75-.77-1.75-1.75.76-1.75 1.75-1.75Z" fill="#03A5E2"/></svg>