<svg width="44" height="44" fill="none" xmlns="http://www.w3.org/2000/svg"><path d="M39.848 33.062c-1.489-1.5-5.095-3.689-6.844-4.57-2.278-1.148-2.466-1.242-4.256.088-1.195.888-1.989 1.681-3.386 1.383-1.398-.298-4.436-1.98-7.095-4.63-2.66-2.652-4.439-5.777-4.738-7.17-.299-1.393.508-2.178 1.387-3.375 1.24-1.688 1.146-1.97.086-4.247-.826-1.772-3.079-5.344-4.584-6.825-1.61-1.591-1.61-1.31-2.649-.879-.845.356-1.655.788-2.421 1.291-1.5.997-2.333 1.825-2.915 3.069-.582 1.244-.844 4.16 2.163 9.622 3.006 5.462 5.116 8.255 9.482 12.609 4.366 4.353 7.723 6.694 12.63 9.447 6.072 3.4 8.4 2.737 9.649 2.156 1.247-.581 2.079-1.406 3.077-2.906.505-.765.938-1.575 1.294-2.419.432-1.034.714-1.034-.88-2.644Z" stroke="#03A5E2" stroke-width="4" stroke-miterlimit="10"/></svg>