<svg width="16" height="16" fill="none" xmlns="http://www.w3.org/2000/svg"><path d="M10.922 5.773h-.733a.51.51 0 0 0-.405.193L7.328 9.129 6.215 7.695a.513.513 0 0 0-.404-.193h-.733c-.102 0-.161.108-.102.185l1.947 2.507a.48.48 0 0 0 .177.141.528.528 0 0 0 .454 0 .488.488 0 0 0 .177-.141l3.29-4.237c.061-.077.002-.184-.1-.184Z" fill="#0072BC"/><path d="M8 1.58c-3.866 0-7 2.91-7 6.5s3.134 6.5 7 6.5 7-2.91 7-6.5-3.134-6.5-7-6.5Zm0 11.897c-3.21 0-5.813-2.417-5.813-5.397C2.188 5.1 4.792 2.683 8 2.683c3.21 0 5.813 2.417 5.813 5.397 0 2.98-2.604 5.397-5.813 5.397Z" fill="#0072BC"/></svg>