<svg width="36" height="37" fill="none" xmlns="http://www.w3.org/2000/svg"><g clip-path="url(#a)"><path d="M15.656 23.828a.901.901 0 0 0 1.278 0l5.052-5.157a.918.918 0 0 0 0-1.29l-5.052-5.156a.895.895 0 0 0-1.278 0 .918.918 0 0 0 0 1.29l4.143 4.51-4.143 4.51a.922.922 0 0 0 0 1.293Zm2.343 11.477a17.28 17.28 0 0 0 17.28-17.28C35.28 8.479 27.543.745 18 .745 8.456.745.72 8.479.72 18.025A17.28 17.28 0 0 0 18 35.305Zm0-32.318c8.307 0 15.037 6.732 15.037 15.038 0 8.305-6.73 15.037-15.037 15.037a15.037 15.037 0 0 1 0-30.075Z" fill="#000"/></g><defs><clipPath id="a"><path fill="#fff" transform="rotate(-180 18 18.012)" d="M0 0h36v36H0z"/></clipPath></defs></svg>