<svg width="37" height="37" fill="none" xmlns="http://www.w3.org/2000/svg"><g clip-path="url(#a)"><path d="M21.296 12.904a.898.898 0 0 0-1.279 0l-5.052 5.157a.918.918 0 0 0 0 1.29l5.052 5.155a.897.897 0 0 0 1.279 0 .918.918 0 0 0 0-1.29l-4.144-4.51 4.143-4.51a.922.922 0 0 0 0-1.292ZM18.951 1.427a17.28 17.28 0 0 0-17.28 17.28c0 9.545 7.736 17.28 17.28 17.28 9.543 0 17.28-7.735 17.28-17.28a17.28 17.28 0 0 0-17.28-17.28Zm0 32.317c-8.307 0-15.037-6.732-15.037-15.037S10.645 3.67 18.952 3.67a15.037 15.037 0 1 1 0 30.074Z" fill="#000"/></g><defs><clipPath id="a"><path fill="#fff" transform="translate(.951 .707)" d="M0 0h36v36H0z"/></clipPath></defs></svg>