<svg width="35" height="34" fill="none" xmlns="http://www.w3.org/2000/svg"><path d="M32.195 13.68h-8.5a.266.266 0 0 0-.265.265v1.594c0 .146.12.266.265.266h8.5c.147 0 .266-.12.266-.266v-1.594a.266.266 0 0 0-.266-.265Zm-4.449 4.515h-4.05a.266.266 0 0 0-.266.266v1.594c0 .146.12.265.265.265h4.051c.146 0 .266-.12.266-.265V18.46a.266.266 0 0 0-.266-.266Zm-11.08-7.487H15.23a.371.371 0 0 0-.372.372v8.234c0 .12.056.23.152.3l4.944 3.605a.37.37 0 0 0 .518-.08l.854-1.165v-.003a.371.371 0 0 0-.083-.518l-4.207-3.042V11.08a.368.368 0 0 0-.369-.372Z" fill="#03A5E2"/><path d="M27.54 22.376h-1.919a.546.546 0 0 0-.461.255 10.658 10.658 0 0 1-1.478 1.85 10.532 10.532 0 0 1-7.48 3.098 10.533 10.533 0 0 1-7.48-3.098A10.532 10.532 0 0 1 5.62 17a10.53 10.53 0 0 1 3.1-7.48 10.531 10.531 0 0 1 7.481-3.1 10.53 10.53 0 0 1 7.48 3.098 10.656 10.656 0 0 1 1.479 1.85c.1.16.275.255.461.255h1.92a.303.303 0 0 0 .271-.441A12.985 12.985 0 0 0 16.358 4.02C9.182 3.931 3.222 9.805 3.21 16.974c-.013 7.181 5.807 13.009 12.99 13.009 4.963 0 9.425-2.81 11.613-7.166a.305.305 0 0 0-.272-.441Z" fill="#03A5E2"/></svg>