<svg width="26" height="32" fill="none" xmlns="http://www.w3.org/2000/svg"><path d="M13 0 .609 4.571v13.715C.609 25.86 6.156 32 12.999 32c6.845 0 12.392-6.14 12.392-13.714V4.57L13 0Zm10.068 18.286c0 6.153-4.508 11.143-10.068 11.143S2.932 24.439 2.932 18.286V6.5L13 2.571 23.068 6.5v11.786Z" fill="#03A5E2"/><path d="M8.95 14.363a1.107 1.107 0 0 0-.356-.284.949.949 0 0 0-.841 0 1.107 1.107 0 0 0-.357.284 1.34 1.34 0 0 0-.238.423 1.516 1.516 0 0 0 0 .998c.055.159.136.302.238.423l3.95 4.69.064.075c.096.115.21.206.337.268a.897.897 0 0 0 .794 0c.126-.062.24-.153.337-.268l6.821-8.099a1.27 1.27 0 0 0 .225-.4 1.435 1.435 0 0 0 0-.943 1.269 1.269 0 0 0-.225-.4l-.085-.101a1.047 1.047 0 0 0-.337-.268.897.897 0 0 0-.795 0c-.126.063-.24.153-.336.268l-6.004 7.124-3.192-3.79Z" fill="#03A5E2"/></svg>