<svg width="57" height="36" fill="none" xmlns="http://www.w3.org/2000/svg"><path d="M2.20884 21.5h3.5c2.31 0 2.345 3.5 0 3.5h-3.5c-2.310004 0-2.338004-3.5 0-3.5Zm0-10.5h3.5c2.31 0 2.345 3.5 0 3.5h-3.5c-2.310004 0-2.338004-3.5 0-3.5Zm0-10.5h3.5c2.31 0 2.345 3.5 0 3.5h-3.5c-2.310004 0-2.338004-3.5 0-3.5ZM29.0188 11.448l-5.81 5.845-2.317-2.317c-1.4595-1.4595-4.004.945-2.415 2.5375l3.514 3.535c.6475.609 1.7745.609 2.415 0l7.035-7.0595c1.631-1.638-.98-3.976-2.415-2.5375l-.007-.0035ZM16.2088.5c-2.877 0-5.25 2.373-5.25 5.25v17.5c0 2.268 3.5 2.275 3.5 0V5.75c0-1.001.749-1.75 1.75-1.75h17.5c1.001 0 1.75.749 1.75 1.75v17.5c0 1.001-.749 1.75-1.75 1.75h-3.5c-2.296 0-2.289 3.5 0 3.5h3.5c2.877 0 5.25-2.373 5.25-5.25V7.5h7.875l6.125 9.1875V23.25c0 2.38 3.5 2.275 3.5 0v-7c0-.35-.1225-.7-.329-.98l-7-10.5c-.315-.469-.861-.77-1.421-.77h-9.079c-.721-2.0475-2.646-3.5-4.921-3.5h-17.5Zm3.5 24.5c-2.8875 0-5.25 2.387-5.25 5.25s2.3625 5.25 5.25 5.25 5.25-2.387 5.25-5.25-2.3625-5.25-5.25-5.25Zm0 3.5c.9905 0 1.75.77 1.75 1.75s-.7595 1.75-1.75 1.75-1.75-.77-1.75-1.75.7595-1.75 1.75-1.75Zm28-3.5c-2.8875 0-5.25 2.387-5.25 5.25s2.3625 5.25 5.25 5.25 5.25-2.387 5.25-5.25-2.3625-5.25-5.25-5.25Zm0 3.5c.9905 0 1.75.77 1.75 1.75s-.7595 1.75-1.75 1.75-1.75-.77-1.75-1.75.7595-1.75 1.75-1.75Z" fill="#03A5E2"/></svg>