<svg width="44" height="44" fill="none" xmlns="http://www.w3.org/2000/svg"><path d="M39.8477 33.0624c-1.4887-1.5-5.0944-3.6891-6.8437-4.5713-2.2782-1.1475-2.4657-1.2412-4.2563.0891-1.1944.8878-1.9884 1.6809-3.3862 1.3828-1.3979-.2981-4.4354-1.9791-7.095-4.6303-2.6597-2.6513-4.4382-5.7769-4.7372-7.17-.2991-1.3931.5072-2.1778 1.3865-3.375 1.2394-1.6875 1.1457-1.9688.0863-4.2469-.826-1.77186-3.0788-5.34373-4.5844-6.82498-1.61062-1.59094-1.61062-1.30969-2.64843-.87844-.84491.35549-1.65548.78761-2.42157 1.29094-1.5.99656-2.3325 1.82437-2.91468 3.06844-.58219 1.24406-.84375 4.16064 2.16281 9.62254 3.00656 5.4618 5.11594 8.2546 9.48187 12.6084 4.3659 4.3537 7.7231 6.6947 12.6309 9.4472 6.0713 3.4003 8.4 2.7375 9.6479 2.1562 1.2478-.5812 2.0793-1.4062 3.0778-2.9062.5046-.7648.9377-1.5745 1.2937-2.4188.4322-1.034.7135-1.034-.8803-2.6437Z" stroke="#03A5E2" stroke-width="4" stroke-miterlimit="10"/></svg>