<svg width="49" height="33" fill="none" xmlns="http://www.w3.org/2000/svg"><path d="M35.3281 24h3c2.04 0 1.956 3 0 3h-3c-2.004 0-1.95-3 0-3Zm-9 0h3c2.04 0 1.956 3 0 3h-3c-2.004 0-1.962-3 0-3Zm-9 0h3c2.04 0 1.956 3 0 3h-3c-2.004 0-1.962-3 0-3Zm-8.99998 0h2.99998c2.04 0 1.956 3 0 3H8.32812c-2.00399 0-2.01-3 0-3ZM30.8281 6c-3.3 0-6 2.7-6 6s2.7 6 6 6c1.176 0 2.106-.648 3-1.218.894.57 1.824 1.218 3 1.218 3.3 0 6-2.7 6-6s-2.7-6-6-6c-1.125 0-2.085.576-3 1.125-.915-.549-1.875-1.125-3-1.125Zm0 3c.78 0 1.449.288 1.968.75.552.522 1.512.522 2.064 0 .519-.462 1.185-.75 1.968-.75 1.674 0 3 1.326 3 3s-1.326 3-3 3c-.738 0-1.398-.33-1.968-.84-.552-.525-1.512-.525-2.064 0-.57.51-1.23.84-1.968.84-1.674 0-3-1.326-3-3s1.326-3 3-3ZM5.32812 0C2.86212 0 .828125 2.034.828125 4.5v24c0 2.466 2.033995 4.5 4.499995 4.5H44.3281c2.466 0 4.5-2.034 4.5-4.5v-24c0-2.466-2.034-4.5-4.5-4.5H5.32812Zm0 3H44.3281c.858 0 1.5.642 1.5 1.5v24c0 .858-.642 1.5-1.5 1.5H5.32812c-.858 0-1.5-.642-1.5-1.5v-24c0-.858.642-1.5 1.5-1.5Z" fill="#03A5E2"/></svg>