<svg width="16" height="16" viewBox="0 0 16 16" fill="none" xmlns="http://www.w3.org/2000/svg">
<path d="M10.9216 5.77295H10.1888C10.0294 5.77295 9.87783 5.84404 9.78408 5.96592L7.32783 9.12886L6.21533 7.69538C6.12158 7.57496 5.97158 7.50241 5.81065 7.50241H5.07783C4.97627 7.50241 4.9169 7.60978 4.97627 7.68668L6.92315 10.1938C6.96914 10.2534 7.02977 10.302 7.10001 10.3355C7.17025 10.369 7.24809 10.3865 7.32705 10.3865C7.40602 10.3865 7.48385 10.369 7.5541 10.3355C7.62434 10.302 7.68497 10.2534 7.73096 10.1938L11.0216 5.95721C11.0825 5.88032 11.0231 5.77295 10.9216 5.77295V5.77295Z" fill="#0072BC"/>
<path d="M8 1.57983C4.13438 1.57983 1 4.49032 1 8.07983C1 11.6693 4.13438 14.5798 8 14.5798C11.8656 14.5798 15 11.6693 15 8.07983C15 4.49032 11.8656 1.57983 8 1.57983ZM8 13.4772C4.79063 13.4772 2.1875 11.06 2.1875 8.07983C2.1875 5.0997 4.79063 2.68251 8 2.68251C11.2094 2.68251 13.8125 5.0997 13.8125 8.07983C13.8125 11.06 11.2094 13.4772 8 13.4772Z" fill="#0072BC"/>
</svg>
