<svg width="37" height="37" viewBox="0 0 37 37" fill="none" xmlns="http://www.w3.org/2000/svg">
<g clip-path="url(#clip0_137_42)">
<path d="M21.2955 12.9036C21.2118 12.8192 21.1123 12.7522 21.0026 12.7066C20.8929 12.6609 20.7753 12.6373 20.6565 12.6373C20.5377 12.6373 20.42 12.6609 20.3104 12.7066C20.2007 12.7522 20.1011 12.8192 20.0175 12.9036L14.9649 18.0606C14.795 18.2324 14.6998 18.4643 14.6998 18.7059C14.6998 18.9475 14.795 19.1793 14.9649 19.3512L20.0175 24.5064C20.1009 24.5912 20.2004 24.6585 20.3101 24.7045C20.4198 24.7504 20.5375 24.7741 20.6565 24.7741C20.7754 24.7741 20.8932 24.7504 21.0029 24.7045C21.1126 24.6585 21.2121 24.5912 21.2955 24.5064C21.4653 24.3345 21.5605 24.1027 21.5605 23.8611C21.5605 23.6195 21.4653 23.3876 21.2955 23.2158L17.1519 18.7068L21.2955 14.196C21.465 14.0236 21.56 13.7915 21.56 13.5498C21.56 13.308 21.465 13.0759 21.2955 12.9036ZM18.9519 1.42676C14.3689 1.42676 9.9737 3.24732 6.73307 6.48795C3.49244 9.72858 1.67188 14.1238 1.67188 18.7068C1.67188 28.2522 9.40828 35.9868 18.9519 35.9868C28.4955 35.9868 36.2319 28.2522 36.2319 18.7068C36.2319 16.4375 35.7849 14.1905 34.9165 12.094C34.0481 9.99748 32.7753 8.09255 31.1707 6.48795C29.5661 4.88336 27.6612 3.61052 25.5646 2.74212C23.4681 1.87372 21.2211 1.42676 18.9519 1.42676ZM18.9519 33.744C10.6449 33.744 3.91467 27.012 3.91467 18.7068C3.91467 10.4016 10.6449 3.66956 18.9519 3.66956C22.94 3.66956 26.7648 5.25383 29.5848 8.07385C32.4048 10.8939 33.9891 14.7186 33.9891 18.7068C33.9891 22.6949 32.4048 26.5196 29.5848 29.3397C26.7648 32.1597 22.94 33.744 18.9519 33.744Z" fill="black"/>
</g>
<defs>
<clipPath id="clip0_137_42">
<rect width="36" height="36" fill="white" transform="translate(0.951172 0.707031)"/>
</clipPath>
</defs>
</svg>
