<svg width="36" height="37" viewBox="0 0 36 37" fill="none" xmlns="http://www.w3.org/2000/svg">
<g clip-path="url(#clip0_179_89)">
<path d="M15.6557 23.8279C15.7394 23.9122 15.8389 23.9792 15.9486 24.0249C16.0583 24.0706 16.1759 24.0941 16.2947 24.0941C16.4135 24.0941 16.5311 24.0706 16.6408 24.0249C16.7505 23.9792 16.85 23.9122 16.9337 23.8279L21.9863 18.6709C22.1561 18.499 22.2514 18.2672 22.2514 18.0256C22.2514 17.784 22.1561 17.5521 21.9863 17.3803L16.9337 12.2251C16.8503 12.1403 16.7508 12.0729 16.6411 12.027C16.5314 11.981 16.4136 11.9573 16.2947 11.9573C16.1758 11.9573 16.058 11.981 15.9483 12.027C15.8386 12.0729 15.7391 12.1403 15.6557 12.2251C15.4859 12.3969 15.3906 12.6288 15.3906 12.8704C15.3906 13.112 15.4859 13.3438 15.6557 13.5157L19.7993 18.0247L15.6557 22.5355C15.4862 22.7079 15.3912 22.9399 15.3912 23.1817C15.3912 23.4234 15.4862 23.6555 15.6557 23.8279ZM17.9993 35.3047C22.5822 35.3047 26.9775 33.4841 30.2181 30.2435C33.4587 27.0029 35.2793 22.6076 35.2793 18.0247C35.2793 8.47928 27.5429 0.744682 17.9993 0.744681C8.4557 0.74468 0.719298 8.47928 0.719297 18.0247C0.719297 20.2939 1.16626 22.5409 2.03466 24.6375C2.90306 26.734 4.1759 28.6389 5.78049 30.2435C7.38509 31.8481 9.29002 33.1209 11.3865 33.9893C13.483 34.8577 15.7301 35.3047 17.9993 35.3047ZM17.9993 2.98748C26.3063 2.98748 33.0365 9.71948 33.0365 18.0247C33.0365 26.3299 26.3063 33.0619 17.9993 33.0619C14.0112 33.0619 10.1864 31.4776 7.36639 28.6576C4.54637 25.8376 2.9621 22.0128 2.9621 18.0247C2.9621 14.0366 4.54637 10.2118 7.36639 7.39177C10.1864 4.57175 14.0112 2.98748 17.9993 2.98748Z" fill="black"/>
</g>
<defs>
<clipPath id="clip0_179_89">
<rect width="36" height="36" fill="white" transform="translate(36 36.0244) rotate(-180)"/>
</clipPath>
</defs>
</svg>
