<svg width="35" height="34" viewBox="0 0 35 34" fill="none" xmlns="http://www.w3.org/2000/svg">
<path d="M32.1954 13.6797H23.6954C23.5493 13.6797 23.4297 13.7992 23.4297 13.9453V15.5391C23.4297 15.6852 23.5493 15.8047 23.6954 15.8047H32.1954C32.3415 15.8047 32.461 15.6852 32.461 15.5391V13.9453C32.461 13.7992 32.3415 13.6797 32.1954 13.6797ZM27.7461 18.1953H23.6954C23.5493 18.1953 23.4297 18.3148 23.4297 18.4609V20.0547C23.4297 20.2008 23.5493 20.3203 23.6954 20.3203H27.7461C27.8922 20.3203 28.0118 20.2008 28.0118 20.0547V18.4609C28.0118 18.3148 27.8922 18.1953 27.7461 18.1953ZM16.6663 10.708H15.2286C15.0227 10.708 14.8567 10.874 14.8567 11.0799V19.3143C14.8567 19.4338 14.9131 19.5434 15.0094 19.6131L19.9534 23.2189C20.1194 23.3385 20.3518 23.3053 20.4713 23.1393L21.3247 21.9738V21.9705C21.4442 21.8045 21.4077 21.5721 21.2417 21.4525L17.0348 18.4111V11.0799C17.0381 10.874 16.8688 10.708 16.6663 10.708Z" fill="#03A5E2"/>
<path d="M27.5402 22.3757H25.6211C25.4352 22.3757 25.2592 22.472 25.1596 22.6314C24.7379 23.2988 24.2465 23.9163 23.682 24.4808C22.7092 25.4536 21.577 26.2173 20.3186 26.7486C19.0137 27.2997 17.6291 27.5786 16.2014 27.5786C14.7703 27.5786 13.3858 27.2997 12.0842 26.7486C10.8258 26.2173 9.69357 25.4536 8.72072 24.4808C7.74787 23.5079 6.9842 22.3757 6.45295 21.1173C5.90178 19.8158 5.62287 18.4312 5.62287 17.0001C5.62287 15.5691 5.90178 14.1878 6.45295 12.8829C6.9842 11.6245 7.74787 10.4923 8.72072 9.51947C9.69357 8.54662 10.8258 7.78295 12.0842 7.2517C13.3858 6.70052 14.7736 6.42162 16.2014 6.42162C17.6324 6.42162 19.017 6.70052 20.3186 7.2517C21.577 7.78295 22.7092 8.54662 23.682 9.51947C24.2465 10.0839 24.7379 10.7015 25.1596 11.3689C25.2592 11.5283 25.4352 11.6245 25.6211 11.6245H27.5402C27.7693 11.6245 27.9154 11.3855 27.8125 11.1829C25.6477 6.8765 21.2582 4.07748 16.3574 4.02103C9.18224 3.93138 3.22229 9.80502 3.20901 16.9736C3.19573 24.1554 9.01623 29.9826 16.1981 29.9826C21.1619 29.9826 25.6244 27.1736 27.8125 22.8173C27.9154 22.6148 27.766 22.3757 27.5402 22.3757Z" fill="#03A5E2"/>
</svg>
