<svg width="184" height="201" viewBox="0 0 184 201" fill="none" xmlns="http://www.w3.org/2000/svg">
<path d="M181.456 159.532C168.895 176.676 151.198 189.373 130.933 195.779C110.668 202.185 88.8884 201.967 68.7551 195.159C48.6218 188.35 31.1814 175.303 18.9642 157.912C6.74706 140.521 0.38859 119.69 0.811279 98.4403C1.23398 77.191 8.41586 56.629 21.315 39.7375C34.2141 22.8459 52.1595 10.5034 72.5477 4.50061C92.9359 -1.50219 114.706 -0.853052 134.701 6.35384C154.695 13.5607 171.873 26.9505 183.743 44.5806L175.955 49.8237C165.2 33.8487 149.635 21.7159 131.517 15.1856C113.4 8.65531 93.6734 8.06711 75.1992 13.5064C56.7251 18.9456 40.4644 30.1294 28.7762 45.4352C17.0881 60.741 10.5804 79.3726 10.1974 98.6271C9.81441 117.881 15.5759 136.757 26.6462 152.516C37.7164 168.274 53.5194 180.096 71.7627 186.265C90.0059 192.435 109.74 192.632 128.103 186.827C146.466 181.023 162.501 169.518 173.884 153.984L181.456 159.532Z" fill="#EBF7FF"/>
</svg>
