<svg width="48" height="49" viewBox="0 0 48 49" fill="none" xmlns="http://www.w3.org/2000/svg">
<path fill-rule="evenodd" clip-rule="evenodd" d="M24 45.5C12.402 45.5 3 36.095 3 24.5C3 12.905 12.402 3.5 24 3.5C35.598 3.5 45 12.905 45 24.5C45 36.095 35.598 45.5 24 45.5ZM24 0.5C10.7445 0.5 1.51922e-08 11.24 3.3949e-08 24.5C5.27058e-08 37.76 10.7445 48.5 24 48.5C37.2555 48.5 48 37.76 48 24.5C48 11.24 37.2555 0.5 24 0.5ZM33 23L25.5 23L25.5 15.5C25.5 14.675 24.8295 14 24 14C23.1705 14 22.5 14.675 22.5 15.5L22.5 23L15 23C14.1705 23 13.5 23.675 13.5 24.5C13.5 25.325 14.1705 26 15 26L22.5 26L22.5 33.5C22.5 34.325 23.1705 35 24 35C24.8295 35 25.5 34.325 25.5 33.5L25.5 26L33 26C33.8295 26 34.5 25.325 34.5 24.5C34.5 23.675 33.8295 23 33 23Z" fill="#03A5E2"/>
</svg>
