<svg width="26" height="32" viewBox="0 0 26 32" fill="none" xmlns="http://www.w3.org/2000/svg">
<path d="M12.9999 0L0.608887 4.57143V18.2857C0.608887 25.8607 6.15581 32 12.9999 32C19.844 32 25.391 25.8607 25.391 18.2857V4.57143L12.9999 0ZM23.0677 18.2857C23.0677 24.4393 18.5598 29.4286 12.9999 29.4286C7.44009 29.4286 2.93221 24.4393 2.93221 18.2857V6.5L12.9999 2.57143L23.0677 6.5V18.2857Z" fill="#03A5E2"/>
<path d="M8.94996 14.3627C8.84813 14.2413 8.72709 14.1449 8.59379 14.0791C8.4605 14.0134 8.31758 13.9795 8.17323 13.9795C8.02889 13.9795 7.88596 14.0134 7.75267 14.0791C7.61937 14.1449 7.49833 14.2413 7.3965 14.3627C7.2942 14.4837 7.21302 14.6274 7.15763 14.7856C7.10224 14.9439 7.07373 15.1136 7.07373 15.285C7.07373 15.4564 7.10224 15.6261 7.15763 15.7843C7.21302 15.9426 7.2942 16.0863 7.3965 16.2072L11.3458 20.8963L11.4099 20.9724C11.5062 21.087 11.6206 21.1779 11.7466 21.2399C11.8725 21.3019 12.0075 21.3338 12.1439 21.3338C12.2802 21.3338 12.4152 21.3019 12.5412 21.2399C12.6671 21.1779 12.7816 21.087 12.8779 20.9724L19.6991 12.8734C19.7956 12.759 19.8721 12.6232 19.9244 12.4737C19.9766 12.3241 20.0035 12.1638 20.0035 12.0019C20.0035 11.84 19.9766 11.6797 19.9244 11.5302C19.8721 11.3806 19.7956 11.2448 19.6991 11.1304L19.6136 11.0289C19.5173 10.9144 19.4029 10.8235 19.2769 10.7614C19.151 10.6994 19.016 10.6675 18.8796 10.6675C18.7433 10.6675 18.6082 10.6994 18.4823 10.7614C18.3563 10.8235 18.2419 10.9144 18.1456 11.0289L12.1423 18.1531L8.94996 14.3627Z" fill="#03A5E2"/>
</svg>
