<svg width="31" height="30" viewBox="0 0 31 30" fill="none" xmlns="http://www.w3.org/2000/svg">
<path d="M21.125 25.4813L18.6969 23.0532L17.375 24.3751L21.125 28.1251L28.625 20.6251L27.3031 19.3032L21.125 25.4813Z" fill="#03A5E2"/>
<path d="M14.5625 26.2498H8V3.74983H15.5V9.37483C15.5015 9.87166 15.6995 10.3477 16.0508 10.699C16.4021 11.0503 16.8782 11.2483 17.375 11.2498H23V16.8748H24.875V9.37483C24.8783 9.25162 24.8549 9.12916 24.8063 9.01587C24.7578 8.90258 24.6853 8.80116 24.5938 8.71858L18.0313 2.15608C17.9487 2.06453 17.8473 1.99197 17.734 1.94342C17.6207 1.89486 17.4982 1.87146 17.375 1.87483H8C7.50318 1.87631 7.02712 2.07433 6.67581 2.42564C6.3245 2.77695 6.12648 3.25301 6.125 3.74983V26.2498C6.12648 26.7467 6.3245 27.2227 6.67581 27.574C7.02712 27.9253 7.50318 28.1233 8 28.1248H14.5625V26.2498ZM17.375 4.12483L22.625 9.37483H17.375V4.12483Z" fill="#03A5E2"/>
</svg>
